<?xml version="1.0" encoding="UTF-8"?>
<svg width="16px" height="16px" viewBox="0 0 16 16" version="1.1" xmlns="http://www.w3.org/2000/svg" xmlns:xlink="http://www.w3.org/1999/xlink">
    <!-- Generator: Sketch 59.1 (86144) - https://sketch.com -->
    <title>pdf_slice</title>
    <desc>Created with Sketch.</desc>
    <g id="小程序" stroke="none" stroke-width="1" fill="none" fill-rule="evenodd">
        <g id="画板" transform="translate(0.000000, -1.000000)" fill-rule="nonzero">
            <g id="pdf" transform="translate(0.000000, 1.000000)">
                <rect id="矩形" fill="#000000" opacity="0" x="0" y="0" width="16" height="16"></rect>
                <path d="M13.003125,1.9984375 L13.003125,13.9671875 L3.0109375,13.9671875 L3.0109375,1.9984375 L13.003125,1.9984375 M13.003125,0.9984375 L3.0109375,0.9984375 C2.459375,0.9984375 2.0109375,1.446875 2.0109375,1.9984375 L2.0109375,13.9671875 C2.0109375,14.51875 2.459375,14.9671875 3.0109375,14.9671875 L13.003125,14.9671875 C13.5546875,14.9671875 14.003125,14.51875 14.003125,13.9671875 L14.003125,1.9984375 C14.003125,1.4453125 13.5546875,0.9984375 13.003125,0.9984375 Z" id="形状" fill="#AE0807" opacity="0.249674479"></path>
                <polygon id="路径" fill="#8C98A6" points="11.4537344 12.877625 11.4537344 12.377625 12.9834219 12.377625 12.9834219 12.877625"></polygon>
                <path d="M14.003125,14.9734375 L7.128125,14.9734375 L7.128125,12.2234375 C7.128125,11.671875 7.5765625,11.2234375 8.128125,11.2234375 L14.003125,11.2234375 C14.5546875,11.2234375 15.003125,11.671875 15.003125,12.2234375 L15.003125,13.9734375 C15.003125,14.5265625 14.5546875,14.9734375 14.003125,14.9734375 Z" id="路径" fill="#AE0807"></path>
                <path d="M9.24375,12.046875 C9.78125,12.046875 10.053125,12.275 10.053125,12.73125 C10.053125,13.190625 9.78125,13.421875 9.2375,13.421875 L8.684375,13.421875 L8.684375,14.278125 L8.31875,14.278125 L8.31875,12.046875 L9.24375,12.046875 Z M8.684375,13.109375 L9.215625,13.109375 C9.378125,13.109375 9.496875,13.078125 9.571875,13.021875 C9.646875,12.9625 9.684375,12.865625 9.684375,12.73125 C9.684375,12.596875 9.64375,12.503125 9.56875,12.446875 C9.49375,12.3875 9.375,12.359375 9.215625,12.359375 L8.684375,12.359375 L8.684375,13.109375 L8.684375,13.109375 Z M11.18125,12.046875 C11.54375,12.046875 11.815625,12.146875 12.003125,12.346875 C12.18125,12.534375 12.271875,12.80625 12.271875,13.1625 C12.271875,13.515625 12.18125,13.7875 12.003125,13.978125 C11.815625,14.178125 11.54375,14.278125 11.18125,14.278125 L10.365625,14.278125 L10.365625,12.046875 L11.18125,12.046875 Z M10.73125,13.965625 L11.1125,13.965625 C11.390625,13.965625 11.59375,13.9 11.721875,13.771875 C11.846875,13.640625 11.909375,13.4375 11.909375,13.1625 C11.909375,12.88125 11.846875,12.675 11.721875,12.55 C11.59375,12.421875 11.390625,12.359375 11.1125,12.359375 L10.73125,12.359375 L10.73125,13.965625 L10.73125,13.965625 Z M14.1375,12.046875 L14.1375,12.359375 L12.98125,12.359375 L12.98125,12.978125 L14.071875,12.978125 L14.071875,13.290625 L12.98125,13.290625 L12.98125,14.278125 L12.615625,14.278125 L12.615625,12.046875 L14.1375,12.046875 Z" id="形状" fill="#FFFFFF"></path>
                <path d="M5.3578125,9.7671875 C5.2796875,9.7671875 5.184375,9.7453125 5.0984375,9.659375 C4.98125,9.58125 4.9,9.4609375 4.8703125,9.3125 C4.8140625,9.046875 4.921875,8.6984375 5.1515625,8.40625 C5.46875,8 5.9125,7.659375 6.471875,7.3921875 C6.5953125,7.3328125 6.721875,7.278125 6.8546875,7.228125 C7.0234375,6.94375 7.203125,6.63125 7.39375,6.2921875 C7.490625,6.11875 7.5890625,5.9078125 7.678125,5.684375 C7.509375,5.33125 7.3578125,4.921875 7.2640625,4.4671875 C7.1609375,3.9640625 7.340625,3.5953125 7.5421875,3.4171875 C7.70625,3.2734375 7.9046875,3.2265625 8.0890625,3.290625 C8.3890625,3.39375 8.49375,3.7265625 8.53125,3.915625 C8.6125,4.340625 8.4484375,5.0390625 8.221875,5.6578125 C8.5171875,6.21875 8.8375,6.5890625 8.9296875,6.6890625 C8.9578125,6.7203125 8.9875,6.7515625 9.01875,6.7828125 C9.65625,6.7484375 10.228125,6.7984375 10.5171875,6.9296875 C10.8625,7.0875 11.1140625,7.390625 11.1421875,7.6859375 C11.159375,7.8625 11.0953125,8.015625 10.965625,8.109375 C10.7171875,8.2875 10.309375,8.2296875 9.75625,7.9359375 C9.4328125,7.765625 9.1078125,7.5375 8.8359375,7.2953125 C8.61875,7.3140625 8.3890625,7.3421875 8.153125,7.3859375 C7.89375,7.4328125 7.553125,7.5109375 7.1921875,7.6375 C6.8109375,8.271875 6.48125,8.7640625 6.2078125,9.1109375 C5.8671875,9.54375 5.6171875,9.7453125 5.3984375,9.7671875 C5.384375,9.765625 5.3703125,9.7671875 5.3578125,9.7671875 L5.3578125,9.7671875 Z M5.375,9.2421875 C5.378125,9.24375 5.3796875,9.2453125 5.38125,9.2453125 C5.4484375,9.2015625 5.6,9.078125 5.86875,8.725 C6.0171875,8.53125 6.1828125,8.2921875 6.365625,8.0109375 C6.05625,8.19375 5.76875,8.4234375 5.54375,8.7109375 C5.39375,8.903125 5.3359375,9.10625 5.3578125,9.2078125 C5.3640625,9.2359375 5.371875,9.240625 5.375,9.2421875 Z M9.6265625,7.275 C9.7359375,7.3484375 9.8484375,7.4171875 9.959375,7.478125 C10.34375,7.6875 10.559375,7.715625 10.640625,7.709375 C10.61875,7.6328125 10.5203125,7.4796875 10.309375,7.384375 C10.19375,7.3296875 9.95,7.2875 9.6265625,7.275 L9.6265625,7.275 Z M7.978125,6.2390625 C7.9265625,6.346875 7.8765625,6.446875 7.828125,6.534375 C7.7375,6.6953125 7.65,6.8515625 7.5640625,7.0015625 C7.725,6.9609375 7.8921875,6.925 8.0625,6.89375 C8.175,6.8734375 8.2890625,6.8546875 8.4015625,6.840625 C8.2890625,6.7 8.1375,6.4953125 7.978125,6.2390625 Z M7.925,3.7609375 C7.91875,3.7609375 7.8984375,3.7671875 7.871875,3.790625 C7.796875,3.85625 7.6890625,4.0515625 7.753125,4.365625 C7.796875,4.5765625 7.853125,4.7765625 7.91875,4.9640625 C8.025,4.5765625 8.0796875,4.2203125 8.0390625,4.0078125 C8.003125,3.8234375 7.940625,3.7671875 7.925,3.7609375 C7.9265625,3.7609375 7.925,3.7609375 7.925,3.7609375 L7.925,3.7609375 Z" id="形状" fill="#AE0807" opacity="0.249674479"></path>
            </g>
        </g>
    </g>
</svg>